<?xml version="1.0" encoding="UTF-8"?>
<svg width="1332px" height="324px" viewBox="0 0 1332 324" version="1.1" xmlns="http://www.w3.org/2000/svg" xmlns:xlink="http://www.w3.org/1999/xlink">
    <!-- Generator: Sketch 62 (91390) - https://sketch.com -->
    <title>Threema: Wortmarke + Bildmarke (Landscape)</title>
    <desc>Created with Sketch.</desc>
    <g id="Threema-Logo" stroke="none" stroke-width="1" fill="none" fill-rule="evenodd">
        <g id="Threema:-Wortmarke-+-Bildmarke-(Landscape)" transform="translate(-200.000000, -343.000000)" fill="#FFFFFF" fill-rule="nonzero">
            <path d="M339.674144,619.387538 C352.753831,619.387538 363.334496,629.991882 363.334496,643.042956 C363.334496,656.118968 352.753831,666.706687 339.674144,666.706687 C326.616622,666.706687 316.035957,656.118968 316.035957,643.042956 C316.035957,629.991882 326.616622,619.387538 339.674144,619.387538 Z M254.351289,619.387538 C267.430975,619.387538 278.011641,629.991882 278.011641,643.042956 C278.011641,656.118968 267.430975,666.706687 254.351289,666.706687 C241.293767,666.706687 230.713101,656.118968 230.713101,643.042956 C230.713101,629.991882 241.293767,619.387538 254.351289,619.387538 Z M424.997,619.387538 C438.076686,619.387538 448.657352,629.991882 448.657352,643.042956 C448.657352,656.118968 438.076686,666.706687 424.997,666.706687 C411.939478,666.706687 401.358812,656.118968 401.358812,643.042956 C401.358812,629.991882 411.939478,619.387538 424.997,619.387538 Z M339.695531,343.5 C416.463111,343.5 478.695531,398.260746 478.695531,465.81155 C478.695531,533.362354 416.463111,588.1231 339.695531,588.1231 C317.847157,588.1231 297.176124,583.687505 278.781988,575.783857 L209.145379,593.193009 L224.027614,533.664071 C209.288676,514.248316 200.695531,490.912968 200.695531,465.81155 C200.695531,398.260746 262.927951,343.5 339.695531,343.5 Z M1424.14733,453.616165 C1460.52983,453.616165 1479.27053,471.99304 1479.6417,498.55865 L1479.64733,499.366165 L1479.64733,585.616165 L1450.39733,585.616165 L1450.39733,572.366165 C1442.64733,583.116165 1428.89733,589.866165 1409.14733,589.866165 C1384.89733,589.866165 1363.39733,579.366165 1363.39733,553.366165 C1363.39733,524.161165 1389.12495,513.82309 1417.77817,508.525179 L1448.64733,502.866165 L1448.64733,499.866165 C1448.64733,487.366165 1439.39733,480.366165 1424.64733,480.366165 C1408.35422,480.366165 1399.42913,487.300767 1387.58225,498.547076 L1384.89733,501.116165 L1364.39733,482.366165 C1380.39733,463.366165 1398.89733,453.616165 1424.14733,453.616165 Z M965.675897,453.616165 C1004.6759,453.616165 1025.4259,478.116165 1025.4259,517.366165 L1025.41757,518.716093 L1025.39384,520.165236 C1025.32534,523.466983 1025.15641,527.215565 1024.97849,529.490376 L1024.9259,530.116165 L933.175897,530.116165 C935.925897,548.616165 946.925897,562.116165 969.175897,562.116165 C983.793684,562.116165 991.763658,557.367727 1006.04266,545.557129 L1007.1759,544.616165 L1025.4259,564.616165 C1006.6759,583.616165 989.175897,589.616165 968.425897,589.616165 C927.175897,589.616165 901.425897,563.116165 901.425897,522.366165 C901.425897,482.866165 925.425897,453.616165 965.675897,453.616165 Z M1097.33304,453.616165 C1136.33304,453.616165 1157.08304,478.116165 1157.08304,517.366165 L1157.07955,518.220567 L1157.05985,519.70919 L1157.02662,521.201473 C1156.9473,524.232334 1156.79455,527.463586 1156.63468,529.502548 L1156.58304,530.116165 L1064.83304,530.116165 C1067.58304,548.616165 1078.58304,562.116165 1100.83304,562.116165 C1115.64317,562.116165 1123.62939,557.241946 1138.26676,545.087248 L1138.83304,544.616165 L1157.08304,564.616165 C1138.33304,583.616165 1120.83304,589.616165 1100.08304,589.616165 C1058.83304,589.616165 1033.08304,563.116165 1033.08304,522.366165 C1033.08304,482.866165 1057.08304,453.616165 1097.33304,453.616165 Z M1309.74018,453.616165 C1336.96518,453.616165 1351.93893,470.03284 1352.23569,495.588947 L1352.24018,496.366165 L1352.24018,585.616165 L1319.74018,585.616165 L1319.74018,506.116165 C1319.74018,491.866165 1314.24018,481.616165 1299.49018,481.616165 C1284.88768,481.616165 1277.14588,492.397265 1276.99251,506.682222 L1276.99018,507.116165 L1276.99018,585.616165 L1244.49018,585.616165 L1244.49018,506.116165 C1244.49018,491.866165 1239.24018,481.616165 1224.24018,481.616165 C1209.63768,481.616165 1201.89588,492.64229 1201.74251,506.689573 L1201.74018,507.116165 L1201.74018,585.616165 L1169.24018,585.616165 L1169.24018,457.866165 L1199.49018,457.866165 L1199.49018,472.116165 C1206.24018,461.116165 1217.99018,453.616165 1235.99018,453.616165 C1252.74018,453.616165 1264.74018,460.616165 1271.49018,472.366165 C1278.99018,461.616165 1290.99018,453.616165 1309.74018,453.616165 Z M682.204468,408.116165 L682.204468,438.116165 L628.704468,438.116165 L628.704468,585.616165 L593.704468,585.616165 L593.704468,438.116165 L540.204468,438.116165 L540.204468,408.116165 L682.204468,408.116165 Z M725.111611,408.116165 L725.111611,469.366165 C733.111611,459.616165 745.361611,453.616165 761.361611,453.616165 C790.814111,453.616165 806.790236,471.748015 807.106813,497.338426 L807.111611,498.116165 L807.111611,585.616165 L774.611611,585.616165 L774.611611,507.866165 C774.611611,491.116165 766.361611,481.616165 750.861611,481.616165 C736.011611,481.616165 725.327036,492.397265 725.114829,508.137671 L725.111611,508.616165 L725.111611,585.616165 L692.611611,585.616165 L692.611611,408.116165 L725.111611,408.116165 Z M884.268754,456.116165 C891.018754,456.116165 896.838907,457.510935 903.746649,459.627998 L904.518754,459.866165 L898.768754,488.366165 C892.018754,486.616165 886.768754,485.866165 882.518754,485.866165 C865.441254,485.866165 854.734404,499.34254 854.521975,521.928944 L854.518754,522.616165 L854.518754,585.616165 L822.018754,585.616165 L822.018754,457.866165 L852.268754,457.866165 L852.268754,476.616165 C858.268754,464.366165 868.518754,456.116165 884.268754,456.116165 Z M1531.30447,549.366165 L1531.30447,585.616165 L1495.80447,585.616165 L1495.80447,549.366165 L1531.30447,549.366165 Z M1448.64733,526.116165 L1426.00018,530.856821 L1423.81987,531.328472 C1406.44182,535.171375 1395.14733,539.821861 1395.14733,551.116165 C1395.14733,559.116165 1402.39733,563.866165 1414.64733,563.866165 C1430.98233,563.866165 1448.29743,556.025365 1448.64209,534.279396 L1448.64733,533.616165 L1448.64733,526.116165 Z M339.677053,400.536474 C317.905033,400.536474 300.262907,418.184077 300.262907,439.90917 L300.262907,455.658249 L298.713768,455.658249 C295.213727,455.658249 292.376382,458.495593 292.376382,461.995635 L292.376382,517.566869 C292.376382,521.066911 295.213727,523.904255 298.713768,523.904255 L380.677294,523.904255 C384.177336,523.904255 387.01468,521.066911 387.01468,517.566869 L387.01468,461.995635 C387.01468,458.495593 384.177336,455.658249 380.677294,455.658249 L379.128155,455.658249 L379.128155,439.90917 C379.128155,418.184077 361.486029,400.536474 339.677053,400.536474 Z M964.675897,479.116165 C947.598397,479.116165 937.626622,490.14229 934.032848,506.372746 L933.925897,506.866165 L993.675897,506.866165 C992.425897,489.866165 982.425897,479.116165 964.675897,479.116165 Z M1096.33304,479.116165 C1079.25554,479.116165 1069.28376,490.14229 1065.68999,506.372746 L1065.58304,506.866165 L1125.33304,506.866165 C1124.08304,489.866165 1114.08304,479.116165 1096.33304,479.116165 Z M339.684444,416.285553 C352.76983,416.285553 363.355106,426.876882 363.355106,439.911938 L363.355106,455.658249 L316.035957,455.658249 L316.035957,439.911938 C316.035957,426.876882 326.621233,416.285553 339.684444,416.285553 Z"></path>
        </g>
    </g>
</svg>