<?xml version="1.0" encoding="UTF-8"?>
<svg width="992px" height="552px" viewBox="0 0 992 552" version="1.1" xmlns="http://www.w3.org/2000/svg" xmlns:xlink="http://www.w3.org/1999/xlink">
    <!-- Generator: Sketch 62 (91390) - https://sketch.com -->
    <title>Threema: Wortmarke + Bildmarke (Portrait, Large)</title>
    <desc>Created with Sketch.</desc>
    <g id="Threema-Logo" stroke="none" stroke-width="1" fill="none" fill-rule="evenodd">
        <g id="Threema:-Wortmarke-+-Bildmarke-(Portrait,-Large)" transform="translate(-370.000000, -236.000000)" fill="#000000">
            <path d="M1254.39286,650.822801 C1290.77536,650.822801 1309.51606,669.199676 1309.88723,695.765286 L1309.89286,696.572801 L1309.89286,782.822801 L1280.64286,782.822801 L1280.64286,769.572801 C1272.89286,780.322801 1259.14286,787.072801 1239.39286,787.072801 C1215.14286,787.072801 1193.64286,776.572801 1193.64286,750.572801 C1193.64286,721.367801 1219.37048,711.029726 1248.02371,705.731815 L1278.89286,700.072801 L1278.89286,697.072801 C1278.89286,684.572801 1269.64286,677.572801 1254.89286,677.572801 C1238.59975,677.572801 1229.67466,684.507402 1217.82778,695.753712 L1215.14286,698.322801 L1194.64286,679.572801 C1210.64286,660.572801 1229.14286,650.822801 1254.39286,650.822801 Z M795.921429,650.822801 C834.921429,650.822801 855.671429,675.322801 855.671429,714.572801 L855.663105,715.922729 C855.621354,719.515884 855.428629,724.080979 855.224024,726.697012 L855.171429,727.322801 L763.421429,727.322801 C766.171429,745.822801 777.171429,759.322801 799.421429,759.322801 C814.231555,759.322801 822.217775,754.448582 836.855145,742.293884 L837.421429,741.822801 L855.671429,761.822801 C836.921429,780.822801 819.421429,786.822801 798.671429,786.822801 C757.421429,786.822801 731.671429,760.322801 731.671429,719.572801 C731.671429,680.072801 755.671429,650.822801 795.921429,650.822801 Z M927.578572,650.822801 C966.578572,650.822801 987.328572,675.322801 987.328572,714.572801 L987.325086,715.427202 L987.305382,716.915825 C987.243555,720.328766 987.066729,724.330394 986.880214,726.709184 L986.828572,727.322801 L895.078572,727.322801 C897.828572,745.822801 908.828572,759.322801 931.078572,759.322801 C945.888698,759.322801 953.874918,754.448582 968.512288,742.293884 L969.078572,741.822801 L987.328572,761.822801 C968.578572,780.822801 951.078572,786.822801 930.328572,786.822801 C889.078572,786.822801 863.328572,760.322801 863.328572,719.572801 C863.328572,680.072801 887.328572,650.822801 927.578572,650.822801 Z M1139.98571,650.822801 C1167.21071,650.822801 1182.18446,667.239476 1182.48122,692.795583 L1182.48571,693.572801 L1182.48571,782.822801 L1149.98571,782.822801 L1149.98571,703.322801 C1149.98571,689.072801 1144.48571,678.822801 1129.73571,678.822801 C1115.13321,678.822801 1107.39141,689.603901 1107.23804,703.888858 L1107.23571,704.322801 L1107.23571,782.822801 L1074.73571,782.822801 L1074.73571,703.322801 C1074.73571,689.072801 1069.48571,678.822801 1054.48571,678.822801 C1039.88321,678.822801 1032.14141,689.848926 1031.98804,703.896209 L1031.98571,704.322801 L1031.98571,782.822801 L999.485714,782.822801 L999.485714,655.072801 L1029.73571,655.072801 L1029.73571,669.322801 C1036.48571,658.322801 1048.23571,650.822801 1066.23571,650.822801 C1082.98571,650.822801 1094.98571,657.822801 1101.73571,669.572801 C1109.23571,658.822801 1121.23571,650.822801 1139.98571,650.822801 Z M512.45,605.322801 L512.45,635.322801 L458.95,635.322801 L458.95,782.822801 L423.95,782.822801 L423.95,635.322801 L370.45,635.322801 L370.45,605.322801 L512.45,605.322801 Z M555.357143,605.322801 L555.357143,666.572801 C563.357143,656.822801 575.607143,650.822801 591.607143,650.822801 C621.059643,650.822801 637.035768,668.954651 637.352345,694.545062 L637.357143,695.322801 L637.357143,782.822801 L604.857143,782.822801 L604.857143,705.072801 C604.857143,688.322801 596.607143,678.822801 581.107143,678.822801 C566.257143,678.822801 555.572568,689.603901 555.360361,705.344307 L555.357143,705.822801 L555.357143,782.822801 L522.857143,782.822801 L522.857143,605.322801 L555.357143,605.322801 Z M714.514286,653.322801 C721.264286,653.322801 727.084439,654.717571 733.99218,656.834633 L734.764286,657.072801 L729.014286,685.572801 C722.264286,683.822801 717.014286,683.072801 712.764286,683.072801 C695.686786,683.072801 684.979936,696.549176 684.767506,719.13558 L684.764286,719.822801 L684.764286,782.822801 L652.264286,782.822801 L652.264286,655.072801 L682.514286,655.072801 L682.514286,673.822801 C688.514286,661.572801 698.764286,653.322801 714.514286,653.322801 Z M1361.55,746.572801 L1361.55,782.822801 L1326.05,782.822801 L1326.05,746.572801 L1361.55,746.572801 Z M1278.89286,723.322801 L1256.24571,728.063457 L1255.13692,728.300788 C1237.15305,732.190962 1225.39286,736.798001 1225.39286,748.322801 C1225.39286,756.322801 1232.64286,761.072801 1244.89286,761.072801 C1261.22786,761.072801 1278.54296,753.232001 1278.88763,731.486032 L1278.89286,730.822801 L1278.89286,723.322801 Z M794.921429,676.322801 C777.843929,676.322801 767.872154,687.348926 764.278379,703.579382 L764.171429,704.072801 L823.921429,704.072801 C822.671429,687.072801 812.671429,676.322801 794.921429,676.322801 Z M926.578572,676.322801 C909.501072,676.322801 899.529297,687.348926 895.935522,703.579382 L895.828572,704.072801 L955.578572,704.072801 C954.328572,687.072801 944.328572,676.322801 926.578572,676.322801 Z M865.978613,512.814737 C879.0583,512.814737 889.638965,523.419081 889.638965,536.470155 C889.638965,549.546168 879.0583,560.133886 865.978613,560.133886 C852.921091,560.133886 842.340426,549.546168 842.340426,536.470155 C842.340426,523.419081 852.921091,512.814737 865.978613,512.814737 Z M780.655758,512.814737 C793.735444,512.814737 804.316109,523.419081 804.316109,536.470155 C804.316109,549.546168 793.735444,560.133886 780.655758,560.133886 C767.598235,560.133886 757.01757,549.546168 757.01757,536.470155 C757.01757,523.419081 767.598235,512.814737 780.655758,512.814737 Z M951.301469,512.814737 C964.381155,512.814737 974.961821,523.419081 974.961821,536.470155 C974.961821,549.546168 964.381155,560.133886 951.301469,560.133886 C938.243947,560.133886 927.663281,549.546168 927.663281,536.470155 C927.663281,523.419081 938.243947,512.814737 951.301469,512.814737 Z M866,236.927199 C942.76758,236.927199 1005,291.687946 1005,359.238749 C1005,426.789553 942.76758,481.5503 866,481.5503 C844.151626,481.5503 823.480593,477.114704 805.086457,469.211056 L735.449848,486.620208 L750.332083,427.09127 C735.593145,407.675515 727,384.340167 727,359.238749 C727,291.687946 789.23242,236.927199 866,236.927199 Z M865.981522,293.963673 C844.209502,293.963673 826.567376,311.611276 826.567376,333.33637 L826.567376,349.085448 L825.018237,349.085448 C821.518195,349.085448 818.680851,351.922792 818.680851,355.422834 L818.680851,410.994069 C818.680851,414.49411 821.518195,417.331455 825.018237,417.331455 L906.981763,417.331455 C910.481805,417.331455 913.319149,414.49411 913.319149,410.994069 L913.319149,355.422834 C913.319149,351.922792 910.481805,349.085448 906.981763,349.085448 L905.432624,349.085448 L905.432624,333.33637 C905.432624,311.611276 887.790498,293.963673 865.981522,293.963673 Z M865.988913,309.712752 C879.074299,309.712752 889.659574,320.304081 889.659574,333.339137 L889.659574,349.085448 L842.340426,349.085448 L842.340426,333.339137 C842.340426,320.304081 852.925701,309.712752 865.988913,309.712752 Z"></path>
        </g>
    </g>
</svg>